<?xml version="1.0" encoding="utf-8"?>
<!-- Generator: Adobe Illustrator 28.2.0, SVG Export Plug-In . SVG Version: 6.00 Build 0)  -->
<svg version="1.1" xmlns="http://www.w3.org/2000/svg" xmlns:xlink="http://www.w3.org/1999/xlink" x="0px" y="0px"
	 viewBox="0 0 1068 600" style="enable-background:new 0 0 1068 600;" xml:space="preserve">
<style type="text/css">
	.st0{fill:#09393D;}
	.st1{opacity:0.15;}
	.st2{fill:#0E3825;stroke:#09393D;stroke-miterlimit:10;}
	.st3{fill:none;stroke:#09393D;stroke-width:0.75;stroke-miterlimit:10;}
	.st4{fill:none;stroke:#09393D;stroke-width:0.5;stroke-miterlimit:10;}
	.st5{fill:none;stroke:#09393D;stroke-width:0.5;stroke-miterlimit:10;stroke-dasharray:9.9934,9.9934;}
	.st6{fill:none;stroke:#09393D;stroke-width:0.5;stroke-miterlimit:10;stroke-dasharray:9.94,9.94;}
	.st7{opacity:0.025;}
	.st8{fill:#F2F1F1;}
	.st9{display:none;}
	.st10{display:inline;}
	.st11{font-family:'SpaceGrotesk-Light';}
	.st12{font-size:11px;}
	.st13{font-family:'SpaceGrotesk-Bold';}
	.st14{fill:none;}
	.st15{letter-spacing:4;}
	.st16{letter-spacing:1;}
	.st17{letter-spacing:6;}
	.st18{letter-spacing:13;}
	.st19{letter-spacing:2;}
	.st20{letter-spacing:3;}
	.st21{letter-spacing:5;}
	.st22{letter-spacing:14;}
	.st23{letter-spacing:10;}
	.st24{letter-spacing:8;}
	.st25{letter-spacing:7;}
	.st26{letter-spacing:9;}
</style>
<g id="COL_x5F_BACKGROUND">
</g>
<g id="Layer_6">
	<g class="st1">
		<polygon class="st2" points="422.73,552.24 422.63,552.34 422.73,552.34 		"/>
		<path class="st3" d="M370.6,374.3c1.55-1.55,3.12-3.08,4.7-4.58l173.34-173.34V48.76H45.06v503.58h251.79
			C296.85,487.9,321.44,423.46,370.6,374.3z"/>
		<path class="st4" d="M978.49,122.4c-98.34-98.22-257.68-98.19-355.98,0.11l-73.87,73.87v355.87L978.49,122.4z"/>
		<circle class="st4" cx="800.52" cy="300.64" r="251.88"/>
		<circle class="st4" cx="548.88" cy="552.29" r="251.88"/>
		<line class="st4" x1="1178.09" y1="-77.2" x2="348.15" y2="752.74"/>
		<line class="st4" x1="876.74" y1="-131.93" x2="-7.91" y2="752.72"/>
		<g>
			<g>
				<g>
					<g>
						<line class="st5" x1="-65.86" y1="48.76" x2="1168.32" y2="48.76"/>
					</g>
				</g>
				<g>
					<g>
						<line class="st5" x1="-65.86" y1="174.66" x2="1168.32" y2="174.66"/>
					</g>
				</g>
				<g>
					<g>
						<line class="st5" x1="-65.86" y1="300.55" x2="1168.32" y2="300.55"/>
					</g>
				</g>
				<g>
					<g>
						<line class="st5" x1="-65.86" y1="426.45" x2="1168.32" y2="426.45"/>
					</g>
				</g>
				<g>
					<g>
						<line class="st5" x1="-65.86" y1="552.34" x2="1168.32" y2="552.34"/>
					</g>
				</g>
			</g>
			<g>
				<g>
					<line class="st6" x1="45.06" y1="663.36" x2="45.06" y2="-67.23"/>
				</g>
			</g>
			<g>
				<g>
					<line class="st6" x1="170.98" y1="663.36" x2="170.98" y2="-67.23"/>
				</g>
			</g>
			<g>
				<g>
					<line class="st6" x1="296.9" y1="663.36" x2="296.9" y2="-67.23"/>
				</g>
			</g>
			<g>
				<g>
					<line class="st6" x1="422.82" y1="663.36" x2="422.82" y2="-67.24"/>
				</g>
			</g>
			<g>
				<g>
					<line class="st6" x1="548.73" y1="663.36" x2="548.73" y2="-67.24"/>
				</g>
			</g>
			<g>
				<g>
					<line class="st6" x1="674.65" y1="663.36" x2="674.65" y2="-67.23"/>
				</g>
			</g>
			<g>
				<g>
					<line class="st6" x1="800.57" y1="663.36" x2="800.57" y2="-67.23"/>
				</g>
			</g>
			<g>
				<g>
					<line class="st6" x1="926.49" y1="663.36" x2="926.49" y2="-67.24"/>
				</g>
			</g>
			<g>
				<g>
					<line class="st6" x1="1052.4" y1="663.36" x2="1052.4" y2="-67.24"/>
				</g>
			</g>
		</g>
	</g>
	<g class="st7">
		<path class="st0" d="M370.89,373.78c1.55-1.55,3.12-3.08,4.7-4.58l173.36-173.36V48.21H45.32v503.63h251.82
			C297.14,487.4,321.72,422.95,370.89,373.78z"/>
		<path class="st0" d="M978.84,121.86c-98.35-98.23-257.71-98.2-356.01,0.11l-73.88,73.88v355.91L978.84,121.86z"/>
	</g>
</g>
<g id="LIN_x5F_GUIDE">
</g>
<g id="IMG_x5F_PHOTOGRAPH">
</g>
<g id="DRW_x5F_SHAPE">
</g>
<g id="TXT_x5F_CONTENT" class="st9">
	<g class="st10">
		<text transform="matrix(1 0 0 1 47.6514 56.9905)"><tspan x="0" y="0" class="st0 st11 st12">r—</tspan><tspan x="14.18" y="0" class="st0 st13 st12">TERMS</tspan></text>
	</g>
	<g class="st10">
		<rect x="48.77" y="109.12" class="st14" width="218.13" height="63.51"/>
		<text transform="matrix(1 0 0 1 48.7707 116.8189)"><tspan x="0" y="0" class="st0 st11 st12">As</tspan><tspan x="12.72" y="0" class="st0 st11 st12 st15"> </tspan><tspan x="20.32" y="0" class="st0 st11 st12">of</tspan><tspan x="32.02" y="0" class="st0 st11 st12 st15"> </tspan><tspan x="39.63" y="0" class="st0 st11 st12">May</tspan><tspan x="62.1" y="0" class="st0 st11 st12 st15"> </tspan><tspan x="69.7" y="0" class="st0 st11 st12">2024,</tspan><tspan x="99.45" y="0" class="st0 st11 st12 st15"> </tspan><tspan x="107.05" y="0" class="st0 st11 st12">the</tspan><tspan x="125.44" y="0" class="st0 st11 st12 st15"> </tspan><tspan x="133.05" y="0" class="st0 st11 st12">rates</tspan><tspan x="160.89" y="0" class="st0 st11 st12 st15"> </tspan><tspan x="168.49" y="0" class="st0 st11 st12">specified </tspan><tspan x="0" y="13.2" class="st0 st11 st12">herein</tspan><tspan x="33.27" y="13.2" class="st0 st11 st12 st15"> </tspan><tspan x="40.46" y="13.2" class="st0 st11 st12">are</tspan><tspan x="57.41" y="13.2" class="st0 st11 st12 st15"> </tspan><tspan x="64.59" y="13.2" class="st0 st11 st12">current.</tspan><tspan x="107.03" y="13.2" class="st0 st11 st12 st15"> </tspan><tspan x="114.21" y="13.2" class="st0 st11 st12">Please</tspan><tspan x="148.68" y="13.2" class="st0 st11 st12 st15"> </tspan><tspan x="155.86" y="13.2" class="st0 st11 st12">be</tspan><tspan x="169.55" y="13.2" class="st0 st11 st12 st15"> </tspan><tspan x="176.73" y="13.2" class="st0 st11 st12">advised </tspan><tspan x="0" y="26.4" class="st0 st11 st12">that</tspan><tspan x="23.21" y="26.4" class="st0 st11 st12 st16"> </tspan><tspan x="27.68" y="26.4" class="st0 st11 st12">these</tspan><tspan x="58.46" y="26.4" class="st0 st11 st12 st16"> </tspan><tspan x="62.93" y="26.4" class="st0 st11 st12">rates</tspan><tspan x="90.77" y="26.4" class="st0 st11 st12 st16"> </tspan><tspan x="95.25" y="26.4" class="st0 st11 st12">are</tspan><tspan x="112.2" y="26.4" class="st0 st11 st12 st16"> </tspan><tspan x="116.67" y="26.4" class="st0 st11 st12">subject</tspan><tspan x="157.22" y="26.4" class="st0 st11 st12 st16"> </tspan><tspan x="161.69" y="26.4" class="st0 st11 st12">to</tspan><tspan x="173.59" y="26.4" class="st0 st11 st12 st16"> </tspan><tspan x="178.06" y="26.4" class="st0 st11 st12">change </tspan><tspan x="0" y="39.6" class="st0 st11 st12">at</tspan><tspan x="11.4" y="39.6" class="st0 st11 st12 st17"> </tspan><tspan x="20.75" y="39.6" class="st0 st11 st12">our</tspan><tspan x="38.35" y="39.6" class="st0 st11 st12 st17"> </tspan><tspan x="47.7" y="39.6" class="st0 st11 st12">sole</tspan><tspan x="69.5" y="39.6" class="st0 st11 st12 st17"> </tspan><tspan x="78.86" y="39.6" class="st0 st11 st12">discretion</tspan><tspan x="132.87" y="39.6" class="st0 st11 st12 st17"> </tspan><tspan x="142.22" y="39.6" class="st0 st11 st12">without</tspan><tspan x="184.14" y="39.6" class="st0 st11 st12 st17"> </tspan><tspan x="193.49" y="39.6" class="st0 st11 st12">prior </tspan><tspan x="0" y="52.8" class="st0 st11 st12">notice.</tspan></text>
	</g>
	<g class="st10">
		<rect x="296.85" y="109.12" class="st14" width="218.11" height="248.31"/>
		<text transform="matrix(1 0 0 1 296.8537 116.8179)"><tspan x="0" y="0" class="st0 st11 st12">A</tspan><tspan x="6.91" y="0" class="st0 st11 st12 st18"> </tspan><tspan x="23.49" y="0" class="st0 st11 st12">complete</tspan><tspan x="74.36" y="0" class="st0 st11 st12 st18"> </tspan><tspan x="90.94" y="0" class="st0 st11 st12">statement</tspan><tspan x="147.68" y="0" class="st0 st11 st12 st18"> </tspan><tspan x="164.26" y="0" class="st0 st11 st12">of</tspan><tspan x="175.96" y="0" class="st0 st11 st12 st18"> </tspan><tspan x="192.54" y="0" class="st0 st11 st12">work </tspan><tspan x="0" y="13.2" class="st0 st11 st12">document</tspan><tspan x="55.15" y="13.2" class="st0 st11 st12 st19"> </tspan><tspan x="60.24" y="13.2" class="st0 st11 st12">shall</tspan><tspan x="84.29" y="13.2" class="st0 st11 st12 st19"> </tspan><tspan x="89.38" y="13.2" class="st0 st11 st12">be</tspan><tspan x="103.06" y="13.2" class="st0 st11 st12 st19"> </tspan><tspan x="108.16" y="13.2" class="st0 st11 st12">provided</tspan><tspan x="155.42" y="13.2" class="st0 st11 st12 st19"> </tspan><tspan x="160.51" y="13.2" class="st0 st11 st12">once</tspan><tspan x="187.28" y="13.2" class="st0 st11 st12 st19"> </tspan><tspan x="192.37" y="13.2" class="st0 st11 st12">both </tspan><tspan x="0" y="26.4" class="st0 st11 st12">parties</tspan><tspan x="37.54" y="26.4" class="st0 st11 st12 st15"> </tspan><tspan x="45.3" y="26.4" class="st0 st11 st12">(“Agency”</tspan><tspan x="98.57" y="26.4" class="st0 st11 st12 st15"> </tspan><tspan x="106.32" y="26.4" class="st0 st11 st12">&amp;</tspan><tspan x="113.03" y="26.4" class="st0 st11 st12 st15"> </tspan><tspan x="120.79" y="26.4" class="st0 st11 st12">“Client”)</tspan><tspan x="164.04" y="26.4" class="st0 st11 st12 st15"> </tspan><tspan x="171.79" y="26.4" class="st0 st11 st12">have</tspan><tspan x="197.31" y="26.4" class="st0 st11 st12 st15"> </tspan><tspan x="205.06" y="26.4" class="st0 st11 st12">an </tspan><tspan x="0" y="39.6" class="st0 st11 st12">agreement.</tspan><tspan x="0" y="66" class="st0 st11 st12">For</tspan><tspan x="16.84" y="66" class="st0 st11 st12 st16"> </tspan><tspan x="21.58" y="66" class="st0 st11 st12">Photography</tspan><tspan x="91.65" y="66" class="st0 st11 st12 st16"> </tspan><tspan x="96.38" y="66" class="st0 st11 st12">&amp;</tspan><tspan x="103.09" y="66" class="st0 st11 st12 st16"> </tspan><tspan x="107.83" y="66" class="st0 st11 st12">Film</tspan><tspan x="128.46" y="66" class="st0 st11 st12 st16"> </tspan><tspan x="133.2" y="66" class="st0 st11 st12">services,</tspan><tspan x="179.73" y="66" class="st0 st11 st12 st16"> </tspan><tspan x="184.46" y="66" class="st0 st11 st12">a</tspan><tspan x="190.78" y="66" class="st0 st11 st12 st16"> </tspan><tspan x="195.51" y="66" class="st0 st11 st12">lead </tspan><tspan x="0" y="79.2" class="st0 st11 st12">time</tspan><tspan x="23.74" y="79.2" class="st0 st11 st12 st20"> </tspan><tspan x="29.9" y="79.2" class="st0 st11 st12">of</tspan><tspan x="41.6" y="79.2" class="st0 st11 st12 st20"> </tspan><tspan x="47.76" y="79.2" class="st0 st11 st12">two</tspan><tspan x="68.55" y="79.2" class="st0 st11 st12 st20"> </tspan><tspan x="74.71" y="79.2" class="st0 st11 st12">(2)</tspan><tspan x="89.54" y="79.2" class="st0 st11 st12 st20"> </tspan><tspan x="95.69" y="79.2" class="st0 st11 st12">to</tspan><tspan x="107.6" y="79.2" class="st0 st11 st12 st20"> </tspan><tspan x="113.76" y="79.2" class="st0 st11 st12">three</tspan><tspan x="142.78" y="79.2" class="st0 st11 st12 st20"> </tspan><tspan x="148.94" y="79.2" class="st0 st11 st12">(3)</tspan><tspan x="163.74" y="79.2" class="st0 st11 st12 st20"> </tspan><tspan x="169.9" y="79.2" class="st0 st11 st12">weeks</tspan><tspan x="203.55" y="79.2" class="st0 st11 st12 st20"> </tspan><tspan x="209.71" y="79.2" class="st0 st11 st12">is </tspan><tspan x="0" y="92.4" class="st0 st11 st12">mandated</tspan><tspan x="54.71" y="92.4" class="st0 st11 st12 st15"> </tspan><tspan x="62.45" y="92.4" class="st0 st11 st12">for</tspan><tspan x="78.22" y="92.4" class="st0 st11 st12 st15"> </tspan><tspan x="85.96" y="92.4" class="st0 st11 st12">the</tspan><tspan x="104.35" y="92.4" class="st0 st11 st12 st15"> </tspan><tspan x="112.09" y="92.4" class="st0 st11 st12">completion</tspan><tspan x="172.53" y="92.4" class="st0 st11 st12 st15"> </tspan><tspan x="180.27" y="92.4" class="st0 st11 st12">of</tspan><tspan x="191.98" y="92.4" class="st0 st11 st12 st15"> </tspan><tspan x="199.72" y="92.4" class="st0 st11 st12">the </tspan><tspan x="0" y="105.6" class="st0 st11 st12">deliverables</tspan><tspan x="63.81" y="105.6" class="st0 st11 st12"> </tspan><tspan x="66.31" y="105.6" class="st0 st11 st12">as</tspan><tspan x="78.44" y="105.6" class="st0 st11 st12"> </tspan><tspan x="80.94" y="105.6" class="st0 st11 st12">outlined</tspan><tspan x="125.17" y="105.6" class="st0 st11 st12"> </tspan><tspan x="127.67" y="105.6" class="st0 st11 st12">in</tspan><tspan x="137" y="105.6" class="st0 st11 st12"> </tspan><tspan x="139.51" y="105.6" class="st0 st11 st12">the</tspan><tspan x="157.9" y="105.6" class="st0 st11 st12"> </tspan><tspan x="160.4" y="105.6" class="st0 st11 st12">Statement </tspan><tspan x="0" y="118.8" class="st0 st11 st12">of Work.</tspan><tspan x="0" y="145.2" class="st0 st11 st12">For</tspan><tspan x="16.84" y="145.2" class="st0 st11 st12 st16"> </tspan><tspan x="20.78" y="145.2" class="st0 st11 st12">Visualization</tspan><tspan x="87.52" y="145.2" class="st0 st11 st12 st16"> </tspan><tspan x="91.46" y="145.2" class="st0 st11 st12">services,</tspan><tspan x="137.99" y="145.2" class="st0 st11 st12 st16"> </tspan><tspan x="141.93" y="145.2" class="st0 st11 st12">a</tspan><tspan x="148.25" y="145.2" class="st0 st11 st12 st16"> </tspan><tspan x="152.19" y="145.2" class="st0 st11 st12">lead</tspan><tspan x="174.78" y="145.2" class="st0 st11 st12 st16"> </tspan><tspan x="178.72" y="145.2" class="st0 st11 st12">time</tspan><tspan x="202.46" y="145.2" class="st0 st11 st12 st16"> </tspan><tspan x="206.4" y="145.2" class="st0 st11 st12">of </tspan><tspan x="0" y="158.4" class="st0 st11 st12">two</tspan><tspan x="20.79" y="158.4" class="st0 st11 st12 st20"> </tspan><tspan x="26.69" y="158.4" class="st0 st11 st12">(2)</tspan><tspan x="41.52" y="158.4" class="st0 st11 st12 st20"> </tspan><tspan x="47.41" y="158.4" class="st0 st11 st12">weeks</tspan><tspan x="81.06" y="158.4" class="st0 st11 st12 st20"> </tspan><tspan x="86.96" y="158.4" class="st0 st11 st12">is</tspan><tspan x="95.37" y="158.4" class="st0 st11 st12 st20"> </tspan><tspan x="101.26" y="158.4" class="st0 st11 st12">necessitated</tspan><tspan x="172.16" y="158.4" class="st0 st11 st12 st20"> </tspan><tspan x="178.06" y="158.4" class="st0 st11 st12">for</tspan><tspan x="193.82" y="158.4" class="st0 st11 st12 st20"> </tspan><tspan x="199.72" y="158.4" class="st0 st11 st12">the </tspan><tspan x="0" y="171.6" class="st0 st11 st12">delivery of initial renders.</tspan><tspan x="0" y="198" class="st0 st11 st12">For</tspan><tspan x="16.84" y="198" class="st0 st11 st12"> </tspan><tspan x="19.4" y="198" class="st0 st11 st12">Graphic</tspan><tspan x="60.09" y="198" class="st0 st11 st12"> </tspan><tspan x="62.66" y="198" class="st0 st11 st12">Design</tspan><tspan x="98.74" y="198" class="st0 st11 st12"> </tspan><tspan x="101.3" y="198" class="st0 st11 st12">services,</tspan><tspan x="147.83" y="198" class="st0 st11 st12"> </tspan><tspan x="150.39" y="198" class="st0 st11 st12">a</tspan><tspan x="156.71" y="198" class="st0 st11 st12"> </tspan><tspan x="159.27" y="198" class="st0 st11 st12">preliminary </tspan><tspan x="0" y="211.2" class="st0 st11 st12">meeting</tspan><tspan x="44.13" y="211.2" class="st0 st11 st12 st21"> </tspan><tspan x="51.99" y="211.2" class="st0 st11 st12">between</tspan><tspan x="99.53" y="211.2" class="st0 st11 st12 st21"> </tspan><tspan x="107.39" y="211.2" class="st0 st11 st12">the</tspan><tspan x="125.78" y="211.2" class="st0 st11 st12 st21"> </tspan><tspan x="133.64" y="211.2" class="st0 st11 st12">client</tspan><tspan x="163.85" y="211.2" class="st0 st11 st12 st21"> </tspan><tspan x="171.71" y="211.2" class="st0 st11 st12">and</tspan><tspan x="191.86" y="211.2" class="st0 st11 st12 st21"> </tspan><tspan x="199.72" y="211.2" class="st0 st11 st12">the </tspan><tspan x="0" y="224.4" class="st0 st11 st12">agency</tspan><tspan x="40.06" y="224.4" class="st0 st11 st12 st20"> </tspan><tspan x="46.12" y="224.4" class="st0 st11 st12">is</tspan><tspan x="54.52" y="224.4" class="st0 st11 st12 st20"> </tspan><tspan x="60.57" y="224.4" class="st0 st11 st12">obligatory</tspan><tspan x="115.77" y="224.4" class="st0 st11 st12 st20"> </tspan><tspan x="121.83" y="224.4" class="st0 st11 st12">prior</tspan><tspan x="146.47" y="224.4" class="st0 st11 st12 st20"> </tspan><tspan x="152.52" y="224.4" class="st0 st11 st12">to</tspan><tspan x="164.42" y="224.4" class="st0 st11 st12 st20"> </tspan><tspan x="170.48" y="224.4" class="st0 st11 st12">finalizing </tspan><tspan x="0" y="237.6" class="st0 st11 st12">the schedule of deliverables.</tspan></text>
	</g>
	<g class="st10">
		<rect x="548.96" y="293.09" class="st14" width="218.45" height="116.31"/>
		<text transform="matrix(1 0 0 1 548.9554 300.7881)"><tspan x="0" y="0" class="st0 st11 st12">Upon</tspan><tspan x="27.96" y="0" class="st0 st11 st12 st22"> </tspan><tspan x="45.71" y="0" class="st0 st11 st12">contractual</tspan><tspan x="108.7" y="0" class="st0 st11 st12 st22"> </tspan><tspan x="126.45" y="0" class="st0 st11 st12">agreement</tspan><tspan x="184.93" y="0" class="st0 st11 st12 st22"> </tspan><tspan x="202.68" y="0" class="st0 st11 st12">for </tspan><tspan x="0" y="13.2" class="st0 st11 st12">Photography</tspan><tspan x="70.07" y="13.2" class="st0 st11 st12 st16"> </tspan><tspan x="74.81" y="13.2" class="st0 st11 st12">and</tspan><tspan x="94.96" y="13.2" class="st0 st11 st12 st16"> </tspan><tspan x="99.7" y="13.2" class="st0 st11 st12">Visualization</tspan><tspan x="166.43" y="13.2" class="st0 st11 st12 st16"> </tspan><tspan x="171.17" y="13.2" class="st0 st11 st12">projects, </tspan><tspan x="0" y="26.4" class="st0 st11 st12">the</tspan><tspan x="18.39" y="26.4" class="st0 st11 st12 st23"> </tspan><tspan x="31.31" y="26.4" class="st0 st11 st12">client</tspan><tspan x="61.52" y="26.4" class="st0 st11 st12 st23"> </tspan><tspan x="74.44" y="26.4" class="st0 st11 st12">is</tspan><tspan x="82.84" y="26.4" class="st0 st11 st12 st23"> </tspan><tspan x="95.75" y="26.4" class="st0 st11 st12">required</tspan><tspan x="140.56" y="26.4" class="st0 st11 st12 st23"> </tspan><tspan x="153.47" y="26.4" class="st0 st11 st12">to</tspan><tspan x="165.37" y="26.4" class="st0 st11 st12 st23"> </tspan><tspan x="178.29" y="26.4" class="st0 st11 st12">provide </tspan><tspan x="0" y="39.6" class="st0 st11 st12">supplementary</tspan><tspan x="80.88" y="39.6" class="st0 st11 st12"> </tspan><tspan x="84" y="39.6" class="st0 st11 st12">CAD</tspan><tspan x="105.24" y="39.6" class="st0 st11 st12"> </tspan><tspan x="108.35" y="39.6" class="st0 st11 st12">software</tspan><tspan x="156.79" y="39.6" class="st0 st11 st12"> </tspan><tspan x="159.9" y="39.6" class="st0 st11 st12">files</tspan><tspan x="182.12" y="39.6" class="st0 st11 st12"> </tspan><tspan x="185.24" y="39.6" class="st0 st11 st12">of</tspan><tspan x="196.94" y="39.6" class="st0 st11 st12"> </tspan><tspan x="200.06" y="39.6" class="st0 st11 st12">the </tspan><tspan x="0" y="52.8" class="st0 st11 st12">project</tspan><tspan x="38.9" y="52.8" class="st0 st11 st12"> </tspan><tspan x="42.46" y="52.8" class="st0 st11 st12">under</tspan><tspan x="73.66" y="52.8" class="st0 st11 st12"> </tspan><tspan x="77.22" y="52.8" class="st0 st11 st12">discussion.</tspan><tspan x="136.42" y="52.8" class="st0 st11 st12"> </tspan><tspan x="139.98" y="52.8" class="st0 st11 st12">These</tspan><tspan x="172.15" y="52.8" class="st0 st11 st12"> </tspan><tspan x="175.71" y="52.8" class="st0 st11 st12">files</tspan><tspan x="197.93" y="52.8" class="st0 st11 st12"> </tspan><tspan x="201.5" y="52.8" class="st0 st11 st12">are </tspan><tspan x="0" y="66" class="st0 st11 st12">essential</tspan><tspan x="48.09" y="66" class="st0 st11 st12 st17"> </tspan><tspan x="57.13" y="66" class="st0 st11 st12">to</tspan><tspan x="69.03" y="66" class="st0 st11 st12 st17"> </tspan><tspan x="78.07" y="66" class="st0 st11 st12">facilitate</tspan><tspan x="126.75" y="66" class="st0 st11 st12 st17"> </tspan><tspan x="135.79" y="66" class="st0 st11 st12">the</tspan><tspan x="154.18" y="66" class="st0 st11 st12 st17"> </tspan><tspan x="163.22" y="66" class="st0 st11 st12">necessary </tspan><tspan x="0" y="79.2" class="st0 st11 st12">preparations</tspan><tspan x="68.57" y="79.2" class="st0 st11 st12 st24"> </tspan><tspan x="79.47" y="79.2" class="st0 st11 st12">for</tspan><tspan x="95.23" y="79.2" class="st0 st11 st12 st24"> </tspan><tspan x="106.12" y="79.2" class="st0 st11 st12">the</tspan><tspan x="124.51" y="79.2" class="st0 st11 st12 st24"> </tspan><tspan x="135.41" y="79.2" class="st0 st11 st12">completion</tspan><tspan x="195.85" y="79.2" class="st0 st11 st12 st24"> </tspan><tspan x="206.74" y="79.2" class="st0 st11 st12">of </tspan><tspan x="0" y="92.4" class="st0 st11 st12">deliverables.</tspan><tspan x="66.38" y="92.4" class="st0 st11 st12"> </tspan><tspan x="69.7" y="92.4" class="st0 st11 st12">Additional</tspan><tspan x="123.55" y="92.4" class="st0 st11 st12"> </tspan><tspan x="126.87" y="92.4" class="st0 st11 st12">charges</tspan><tspan x="170.08" y="92.4" class="st0 st11 st12"> </tspan><tspan x="173.39" y="92.4" class="st0 st11 st12">apply</tspan><tspan x="203.23" y="92.4" class="st0 st11 st12"> </tspan><tspan x="206.55" y="92.4" class="st0 st11 st12">to </tspan><tspan x="0" y="105.6" class="st0 st11 st12">major revisions on 3D models.</tspan></text>
	</g>
	<g class="st10">
		<rect x="806.49" y="293.09" class="st14" width="213.37" height="248.31"/>
		<text transform="matrix(1 0 0 1 806.4888 300.7881)"><tspan x="0" y="0" class="st0 st11 st12">We</tspan><tspan x="16.1" y="0" class="st0 st11 st12 st25"> </tspan><tspan x="26.17" y="0" class="st0 st11 st12">reserve</tspan><tspan x="65.73" y="0" class="st0 st11 st12 st25"> </tspan><tspan x="75.79" y="0" class="st0 st11 st12">the</tspan><tspan x="94.18" y="0" class="st0 st11 st12 st25"> </tspan><tspan x="104.25" y="0" class="st0 st11 st12">right,</tspan><tspan x="132.38" y="0" class="st0 st11 st12 st25"> </tspan><tspan x="142.44" y="0" class="st0 st11 st12">at</tspan><tspan x="153.84" y="0" class="st0 st11 st12 st25"> </tspan><tspan x="163.9" y="0" class="st0 st11 st12">our</tspan><tspan x="181.5" y="0" class="st0 st11 st12 st25"> </tspan><tspan x="191.57" y="0" class="st0 st11 st12">sole </tspan><tspan x="0" y="13.2" class="st0 st11 st12">discretion,</tspan><tspan x="56.58" y="13.2" class="st0 st11 st12 st19"> </tspan><tspan x="61.73" y="13.2" class="st0 st11 st12">to</tspan><tspan x="73.64" y="13.2" class="st0 st11 st12 st19"> </tspan><tspan x="78.79" y="13.2" class="st0 st11 st12">modify</tspan><tspan x="116.4" y="13.2" class="st0 st11 st12 st19"> </tspan><tspan x="121.55" y="13.2" class="st0 st11 st12">or</tspan><tspan x="132.43" y="13.2" class="st0 st11 st12 st19"> </tspan><tspan x="137.58" y="13.2" class="st0 st11 st12">replace</tspan><tspan x="177.44" y="13.2" class="st0 st11 st12 st19"> </tspan><tspan x="182.59" y="13.2" class="st0 st11 st12">these </tspan><tspan x="0" y="26.4" class="st0 st11 st12">terms</tspan><tspan x="31.01" y="26.4" class="st0 st11 st12 st16"> </tspan><tspan x="34.99" y="26.4" class="st0 st11 st12">at</tspan><tspan x="46.39" y="26.4" class="st0 st11 st12 st16"> </tspan><tspan x="50.37" y="26.4" class="st0 st11 st12">any</tspan><tspan x="70.13" y="26.4" class="st0 st11 st12 st16"> </tspan><tspan x="74.12" y="26.4" class="st0 st11 st12">time</tspan><tspan x="97.85" y="26.4" class="st0 st11 st12 st16"> </tspan><tspan x="101.83" y="26.4" class="st0 st11 st12">without</tspan><tspan x="143.75" y="26.4" class="st0 st11 st12 st16"> </tspan><tspan x="147.74" y="26.4" class="st0 st11 st12">prior</tspan><tspan x="172.38" y="26.4" class="st0 st11 st12 st16"> </tspan><tspan x="176.36" y="26.4" class="st0 st11 st12">notice. </tspan><tspan x="0" y="39.6" class="st0 st11 st12">In</tspan><tspan x="9.33" y="39.6" class="st0 st11 st12"> </tspan><tspan x="11.75" y="39.6" class="st0 st11 st12">the</tspan><tspan x="30.14" y="39.6" class="st0 st11 st12"> </tspan><tspan x="32.55" y="39.6" class="st0 st11 st12">event</tspan><tspan x="63.42" y="39.6" class="st0 st11 st12"> </tspan><tspan x="65.84" y="39.6" class="st0 st11 st12">that</tspan><tspan x="89.05" y="39.6" class="st0 st11 st12"> </tspan><tspan x="91.47" y="39.6" class="st0 st11 st12">any</tspan><tspan x="111.23" y="39.6" class="st0 st11 st12"> </tspan><tspan x="113.65" y="39.6" class="st0 st11 st12">changes</tspan><tspan x="159.53" y="39.6" class="st0 st11 st12"> </tspan><tspan x="161.95" y="39.6" class="st0 st11 st12">are</tspan><tspan x="178.9" y="39.6" class="st0 st11 st12"> </tspan><tspan x="181.32" y="39.6" class="st0 st11 st12">made, </tspan><tspan x="0" y="52.8" class="st0 st11 st12">the</tspan><tspan x="18.39" y="52.8" class="st0 st11 st12 st19"> </tspan><tspan x="23.24" y="52.8" class="st0 st11 st12">revised</tspan><tspan x="61.86" y="52.8" class="st0 st11 st12 st19"> </tspan><tspan x="66.7" y="52.8" class="st0 st11 st12">terms</tspan><tspan x="97.71" y="52.8" class="st0 st11 st12 st19"> </tspan><tspan x="102.56" y="52.8" class="st0 st11 st12">and</tspan><tspan x="122.71" y="52.8" class="st0 st11 st12 st19"> </tspan><tspan x="127.56" y="52.8" class="st0 st11 st12">conditions</tspan><tspan x="184.48" y="52.8" class="st0 st11 st12 st19"> </tspan><tspan x="189.33" y="52.8" class="st0 st11 st12">shall </tspan><tspan x="0" y="66" class="st0 st11 st12">be</tspan><tspan x="13.68" y="66" class="st0 st11 st12"> </tspan><tspan x="17.34" y="66" class="st0 st11 st12">provided</tspan><tspan x="64.61" y="66" class="st0 st11 st12"> </tspan><tspan x="68.27" y="66" class="st0 st11 st12">to</tspan><tspan x="80.17" y="66" class="st0 st11 st12"> </tspan><tspan x="83.83" y="66" class="st0 st11 st12">clients,</tspan><tspan x="122.43" y="66" class="st0 st11 st12"> </tspan><tspan x="126.09" y="66" class="st0 st11 st12">or</tspan><tspan x="136.97" y="66" class="st0 st11 st12"> </tspan><tspan x="140.62" y="66" class="st0 st11 st12">posted</tspan><tspan x="179.12" y="66" class="st0 st11 st12"> </tspan><tspan x="182.78" y="66" class="st0 st11 st12">in</tspan><tspan x="192.11" y="66" class="st0 st11 st12"> </tspan><tspan x="195.77" y="66" class="st0 st11 st12">our </tspan><tspan x="0" y="79.2" class="st0 st11 st12">website immediately.</tspan><tspan x="0" y="105.6" class="st0 st11 st12">Users</tspan><tspan x="29.56" y="105.6" class="st0 st11 st12 st23"> </tspan><tspan x="43.14" y="105.6" class="st0 st11 st12">are</tspan><tspan x="60.09" y="105.6" class="st0 st11 st12 st23"> </tspan><tspan x="73.67" y="105.6" class="st0 st11 st12">prohibited</tspan><tspan x="129.45" y="105.6" class="st0 st11 st12 st23"> </tspan><tspan x="143.03" y="105.6" class="st0 st11 st12">from</tspan><tspan x="168.27" y="105.6" class="st0 st11 st12 st23"> </tspan><tspan x="181.86" y="105.6" class="st0 st11 st12">using, </tspan><tspan x="0" y="118.8" class="st0 st11 st12">transposing,</tspan><tspan x="66.71" y="118.8" class="st0 st11 st12 st17"> </tspan><tspan x="75.7" y="118.8" class="st0 st11 st12">copying,</tspan><tspan x="121.96" y="118.8" class="st0 st11 st12 st17"> </tspan><tspan x="130.94" y="118.8" class="st0 st11 st12">distributing</tspan><tspan x="193.51" y="118.8" class="st0 st11 st12 st17"> </tspan><tspan x="202.49" y="118.8" class="st0 st11 st12">or </tspan><tspan x="0" y="132" class="st0 st11 st12">modifying</tspan><tspan x="54.02" y="132" class="st0 st11 st12"> </tspan><tspan x="56.74" y="132" class="st0 st11 st12">all</tspan><tspan x="68.25" y="132" class="st0 st11 st12"> </tspan><tspan x="70.97" y="132" class="st0 st11 st12">or</tspan><tspan x="81.85" y="132" class="st0 st11 st12"> </tspan><tspan x="84.57" y="132" class="st0 st11 st12">part</tspan><tspan x="107.13" y="132" class="st0 st11 st12"> </tspan><tspan x="109.85" y="132" class="st0 st11 st12">of</tspan><tspan x="121.56" y="132" class="st0 st11 st12"> </tspan><tspan x="124.28" y="132" class="st0 st11 st12">the</tspan><tspan x="142.67" y="132" class="st0 st11 st12"> </tspan><tspan x="145.4" y="132" class="st0 st11 st12">data,</tspan><tspan x="172.79" y="132" class="st0 st11 st12"> </tspan><tspan x="175.51" y="132" class="st0 st11 st12">images </tspan><tspan x="0" y="145.2" class="st0 st11 st12">and</tspan><tspan x="20.15" y="145.2" class="st0 st11 st12"> </tspan><tspan x="22.69" y="145.2" class="st0 st11 st12">any</tspan><tspan x="42.46" y="145.2" class="st0 st11 st12"> </tspan><tspan x="45" y="145.2" class="st0 st11 st12">other</tspan><tspan x="74.27" y="145.2" class="st0 st11 st12"> </tspan><tspan x="76.81" y="145.2" class="st0 st11 st12">form</tspan><tspan x="102.05" y="145.2" class="st0 st11 st12"> </tspan><tspan x="104.59" y="145.2" class="st0 st11 st12">of</tspan><tspan x="116.3" y="145.2" class="st0 st11 st12"> </tspan><tspan x="118.84" y="145.2" class="st0 st11 st12">content</tspan><tspan x="162.5" y="145.2" class="st0 st11 st12"> </tspan><tspan x="165.04" y="145.2" class="st0 st11 st12">obtained </tspan><tspan x="0" y="158.4" class="st0 st11 st12">from</tspan><tspan x="25.24" y="158.4" class="st0 st11 st12 st20"> </tspan><tspan x="31.85" y="158.4" class="st0 st11 st12">this</tspan><tspan x="52.07" y="158.4" class="st0 st11 st12 st20"> </tspan><tspan x="58.67" y="158.4" class="st0 st11 st12">document</tspan><tspan x="113.83" y="158.4" class="st0 st11 st12 st20"> </tspan><tspan x="120.43" y="158.4" class="st0 st11 st12">for</tspan><tspan x="136.19" y="158.4" class="st0 st11 st12 st20"> </tspan><tspan x="142.8" y="158.4" class="st0 st11 st12">any</tspan><tspan x="162.57" y="158.4" class="st0 st11 st12 st20"> </tspan><tspan x="169.17" y="158.4" class="st0 st11 st12">purpose </tspan><tspan x="0" y="171.6" class="st0 st11 st12">other</tspan><tspan x="29.27" y="171.6" class="st0 st11 st12"> </tspan><tspan x="32.68" y="171.6" class="st0 st11 st12">than</tspan><tspan x="57.54" y="171.6" class="st0 st11 st12"> </tspan><tspan x="60.95" y="171.6" class="st0 st11 st12">personal</tspan><tspan x="106.96" y="171.6" class="st0 st11 st12"> </tspan><tspan x="110.37" y="171.6" class="st0 st11 st12">use,</tspan><tspan x="132.05" y="171.6" class="st0 st11 st12"> </tspan><tspan x="135.46" y="171.6" class="st0 st11 st12">as</tspan><tspan x="147.58" y="171.6" class="st0 st11 st12"> </tspan><tspan x="150.99" y="171.6" class="st0 st11 st12">specified</tspan><tspan x="200.63" y="171.6" class="st0 st11 st12"> </tspan><tspan x="204.04" y="171.6" class="st0 st11 st12">in </tspan><tspan x="0" y="184.8" class="st0 st11 st12">copyright</tspan><tspan x="52.83" y="184.8" class="st0 st11 st12 st26"> </tspan><tspan x="64.89" y="184.8" class="st0 st11 st12">laws,</tspan><tspan x="91.07" y="184.8" class="st0 st11 st12 st26"> </tspan><tspan x="103.13" y="184.8" class="st0 st11 st12">or</tspan><tspan x="114" y="184.8" class="st0 st11 st12 st26"> </tspan><tspan x="126.06" y="184.8" class="st0 st11 st12">that</tspan><tspan x="149.27" y="184.8" class="st0 st11 st12 st26"> </tspan><tspan x="161.33" y="184.8" class="st0 st11 st12">which</tspan><tspan x="192.91" y="184.8" class="st0 st11 st12 st26"> </tspan><tspan x="204.97" y="184.8" class="st0 st11 st12">is </tspan><tspan x="0" y="198" class="st0 st11 st12">explicitly</tspan><tspan x="49.04" y="198" class="st0 st11 st12 st25"> </tspan><tspan x="59.77" y="198" class="st0 st11 st12">permitted</tspan><tspan x="111.88" y="198" class="st0 st11 st12 st25"> </tspan><tspan x="122.62" y="198" class="st0 st11 st12">by</tspan><tspan x="136.44" y="198" class="st0 st11 st12 st25"> </tspan><tspan x="147.18" y="198" class="st0 st11 st12">other</tspan><tspan x="176.45" y="198" class="st0 st11 st12 st25"> </tspan><tspan x="187.19" y="198" class="st0 st11 st12">laws, </tspan><tspan x="0" y="211.2" class="st0 st11 st12">without</tspan><tspan x="41.92" y="211.2" class="st0 st11 st12"> </tspan><tspan x="44.83" y="211.2" class="st0 st11 st12">the</tspan><tspan x="63.22" y="211.2" class="st0 st11 st12"> </tspan><tspan x="66.14" y="211.2" class="st0 st11 st12">consent</tspan><tspan x="110.52" y="211.2" class="st0 st11 st12"> </tspan><tspan x="113.43" y="211.2" class="st0 st11 st12">of</tspan><tspan x="125.14" y="211.2" class="st0 st11 st12"> </tspan><tspan x="128.05" y="211.2" class="st0 st11 st12">the</tspan><tspan x="146.44" y="211.2" class="st0 st11 st12"> </tspan><tspan x="149.35" y="211.2" class="st0 st11 st12">Company</tspan><tspan x="199.58" y="211.2" class="st0 st11 st12"> </tspan><tspan x="202.49" y="211.2" class="st0 st11 st12">or </tspan><tspan x="0" y="224.4" class="st0 st11 st12">the</tspan><tspan x="18.39" y="224.4" class="st0 st11 st12 st21"> </tspan><tspan x="26.91" y="224.4" class="st0 st11 st12">holders</tspan><tspan x="66.61" y="224.4" class="st0 st11 st12 st21"> </tspan><tspan x="75.12" y="224.4" class="st0 st11 st12">of</tspan><tspan x="86.83" y="224.4" class="st0 st11 st12 st21"> </tspan><tspan x="95.34" y="224.4" class="st0 st11 st12">rights</tspan><tspan x="126.71" y="224.4" class="st0 st11 st12 st21"> </tspan><tspan x="135.22" y="224.4" class="st0 st11 st12">to</tspan><tspan x="147.12" y="224.4" class="st0 st11 st12 st21"> </tspan><tspan x="155.64" y="224.4" class="st0 st11 st12">said</tspan><tspan x="177.46" y="224.4" class="st0 st11 st12 st21"> </tspan><tspan x="185.98" y="224.4" class="st0 st11 st12">data, </tspan><tspan x="0" y="237.6" class="st0 st11 st12">images and content.</tspan></text>
	</g>
</g>
</svg>
